<?xml version="1.0" encoding="UTF-8" standalone="no"?><!DOCTYPE svg PUBLIC "-//W3C//DTD SVG 1.1//EN" "http://www.w3.org/Graphics/SVG/1.1/DTD/svg11.dtd"><svg width="100%" height="100%" viewBox="0 0 528 413" version="1.1" xmlns="http://www.w3.org/2000/svg" xmlns:xlink="http://www.w3.org/1999/xlink" xml:space="preserve" xmlns:serif="http://www.serif.com/" style="fill-rule:evenodd;clip-rule:evenodd;stroke-linejoin:round;stroke-miterlimit:2;"><clipPath id="_clip1"><rect x="43.334" y="0" width="470.03" height="332.425"/></clipPath><g clip-path="url(#_clip1)"><g><path d="M368.909,276.426c2.345,-7.587 4.351,-19.54 5.917,-38.299c4.833,-57.905 -49.581,-94.792 -49.581,-94.792c0,0 -20.88,24.811 -18.56,54.755c2.32,29.944 9.183,65.43 62.224,78.336Z" style="fill:#b0ce5c;"/><path d="M368.909,276.426c-53.041,-12.906 -59.904,-48.392 -62.224,-78.336c-2.32,-29.944 18.56,-54.755 18.56,-54.755c0,0 54.415,36.887 49.581,94.792c-1.566,18.759 -3.572,30.712 -5.917,38.299Zm-0.793,-1.39c2.194,-7.577 4.071,-19.209 5.556,-37.006c4.42,-52.95 -41.282,-88.114 -48.205,-93.12c-3.511,4.503 -19.665,26.784 -17.627,53.091c1.374,17.738 4.316,37.463 17.799,53.144c8.823,10.261 22.16,18.77 42.477,23.891Z" style="fill:#8aa836;fill-opacity:0.51;"/></g><g><path d="M115.92,293.887c0,0 26.956,-17.461 64.879,-17.461c37.923,0 71.862,9.922 90.742,16.882c18.88,6.96 55.332,16.425 78.208,18.096c22.875,1.67 72.118,-7.34 93.75,-21.715c-6.318,4.774 -16.313,12.263 -34.856,21.913c-55.479,28.873 -140.296,-3.539 -157.292,-9.664c-16.995,-6.125 -50.999,-14.363 -71.888,-15.644c-44.547,-2.733 -63.543,7.593 -63.543,7.593Z" style="fill:#b0ce5c;"/><path d="M115.92,293.887c0,0 26.956,-17.461 64.879,-17.461c37.923,0 71.862,9.922 90.742,16.882c18.88,6.96 55.332,16.425 78.208,18.096c22.875,1.67 72.118,-7.34 93.75,-21.715c-6.318,4.774 -16.313,12.263 -34.856,21.913c-55.479,28.873 -140.296,-3.539 -157.292,-9.664c-16.995,-6.125 -50.999,-14.363 -71.888,-15.644c-44.547,-2.733 -63.543,7.593 -63.543,7.593Zm8.492,-3.846c9.631,-2.788 27.48,-6.097 55.091,-4.403c20.942,1.285 55.032,9.542 72.07,15.682c10.178,3.668 44.723,16.784 82.693,20.463c25.236,2.445 51.991,0.728 74.072,-10.764c11.848,-6.166 20.197,-11.447 26.324,-15.698c-24.321,11.424 -64.819,18.209 -84.962,16.738c-22.927,-1.674 -59.463,-11.158 -78.387,-18.134c-18.833,-6.942 -52.686,-16.841 -90.515,-16.841c-25.309,0 -45.706,7.816 -56.387,12.958Z" style="fill:#708633;fill-opacity:0.44;"/></g><g><path d="M372.041,279.549c0,0 -158.758,-10.585 -108.961,-168.429c0,0 -16.12,22.406 -16.125,59.897c-0.006,41.521 24.578,105.901 122.421,117.748c97.842,11.847 143.971,-124.254 143.971,-124.254c0,0 -33.114,133.345 -143.971,134.501c-29.502,0.308 -55.965,-4.187 -78.9,-12.018c-19.756,-5.719 -51.324,-21.639 -93.185,-21.503c-41.861,0.135 -83.408,21.74 -83.408,21.74c48.848,-50.542 107.281,-43.191 107.281,-43.191c-19.637,-20.737 -30.097,-44.735 -29.779,-67.163l-46.573,63.739c0,0 -29.489,51.539 -101.478,80.218l116.266,-199.426c-17.025,-11.238 -26.216,-45.276 -26.216,-45.276c0,0 11,14.49 34.733,5.323c-46.998,-0.828 -46.751,-38.896 -46.751,-38.896c0,0 10.655,15.537 28.95,11.374c-39.898,-9.052 -37.98,-45.005 -37.98,-45.005c0,0 6.239,13.861 32.045,20.656c25.806,6.795 104.359,0.272 104.359,0.272l71.72,-4.427c0,0 49.656,-3.785 74.34,19.622c21.628,20.509 18.206,26.629 18.206,26.629c0,0 -0.535,2.738 -14.142,-4.466c-13.607,-7.205 -20.68,-2.614 -20.998,-0.547c-0.317,2.067 2.157,10.184 12.116,9.637c9.96,-0.547 4.395,-5.845 2.909,-4.135c-1.487,1.71 -4.708,1.948 -7.087,-0.19c-2.379,-2.137 -3.32,-4.607 -1.834,-5.747c1.487,-1.14 3.965,-1.33 4.262,-0.19c0.298,1.14 -0.495,2.945 1.338,3.372c1.834,0.427 3.965,-2.137 9.664,0.095c5.699,2.232 6.312,3.605 12.12,4.347c5.808,0.742 7.238,-1.298 12.271,1.67c5.033,2.969 18.473,10.154 23.119,18.467c4.646,8.312 7.277,17.813 3.226,31.708c-4.051,13.895 -13.241,17.635 -13.241,17.635c0,0 11.673,-40.047 -38.858,-45.245c41.339,13.437 37.824,37.12 37.824,37.12c0,0 -7.695,-26.931 -55.632,-23.845c-47.936,3.086 -76.429,40.414 -77.001,84.849c-0.572,44.435 24.332,78.945 68.978,83.334Zm42.153,-202.878c0.666,5.653 9.439,4.11 9.439,4.11c0,0 -3.911,-5.492 -9.439,-4.11Z" style="fill:#243851;"/><path d="M411.83,72.188c-1.526,0.05 -5.013,-0.764 -12.966,-4.975c-13.607,-7.205 -20.68,-2.614 -20.998,-0.547c-0.317,2.067 2.157,10.184 12.116,9.637c9.96,-0.547 4.395,-5.845 2.909,-4.135c-1.487,1.71 -4.708,1.948 -7.087,-0.19c-2.379,-2.137 -3.32,-4.607 -1.834,-5.747c1.487,-1.14 3.965,-1.33 4.262,-0.19c0.298,1.14 -0.495,2.945 1.338,3.372c1.834,0.427 3.965,-2.137 9.664,0.095c5.699,2.232 6.312,3.605 12.12,4.347c5.808,0.742 7.238,-1.298 12.271,1.67c5.033,2.969 18.473,10.154 23.119,18.467c4.646,8.312 7.277,17.813 3.226,31.708c-4.051,13.895 -13.241,17.635 -13.241,17.635c0,0 11.673,-40.047 -38.858,-45.245c41.339,13.437 37.824,37.12 37.824,37.12c0,0 -7.695,-26.931 -55.632,-23.845c-47.936,3.086 -76.429,40.414 -77.001,84.849c-0.572,44.435 24.332,78.945 68.978,83.334c0,0 -158.758,-10.585 -108.961,-168.429c0,0 -16.12,22.406 -16.125,59.897c-0.006,41.521 24.578,105.901 122.421,117.748c97.842,11.847 143.971,-124.254 143.971,-124.254c0,0 -33.114,133.345 -143.971,134.501c-29.502,0.308 -55.965,-4.187 -78.9,-12.018c-19.756,-5.719 -51.324,-21.639 -93.185,-21.503c-41.861,0.135 -83.408,21.74 -83.408,21.74c48.848,-50.542 107.281,-43.191 107.281,-43.191c-19.637,-20.737 -30.097,-44.735 -29.779,-67.163l-46.573,63.739c0,0 -29.489,51.539 -101.478,80.218l116.266,-199.426c-17.025,-11.238 -26.216,-45.276 -26.216,-45.276c0,0 11,14.49 34.733,5.323c-46.998,-0.828 -46.751,-38.896 -46.751,-38.896c0,0 10.655,15.537 28.95,11.374c-39.898,-9.052 -37.98,-45.005 -37.98,-45.005c0,0 6.239,13.861 32.045,20.656c25.806,6.795 104.359,0.272 104.359,0.272l71.72,-4.427c0,0 49.656,-3.785 74.34,19.622c21.628,20.509 18.206,26.629 18.206,26.629c0,0 -0.054,0.278 -0.569,0.424l-0.623,-0.986c-0.006,0.008 -0.01,0.014 -0.012,0.019c-0.216,0.424 -0.152,0.774 0.027,1.051Zm0.014,-1.354c0.036,-0.561 -0.018,-1.973 -1.038,-4.233c-1.813,-4.017 -6.306,-10.527 -16.918,-20.589c-9.696,-9.194 -23.329,-14.085 -36.182,-16.681c-19.443,-3.927 -37.146,-2.581 -37.146,-2.581l-0.019,0.001l-71.707,4.426c-1.23,0.101 -79.08,6.458 -104.792,-0.312c-17.542,-4.619 -26.268,-12.463 -30.173,-17.261c1.038,9.768 6.721,32.225 36.739,39.035c0.604,0.137 1.032,0.673 1.032,1.292c0,0.619 -0.428,1.156 -1.032,1.293c-13.564,3.086 -23.121,-4.16 -27.551,-8.663c0.726,4.736 2.881,12.88 9.281,19.955c6.541,7.23 17.503,13.291 35.8,13.613c0.634,0.011 1.171,0.47 1.282,1.094c0.111,0.624 -0.236,1.239 -0.827,1.468c-16.664,6.437 -27.307,1.624 -32.497,-2.227c1.523,4.632 4.245,12.092 8.098,19.543c4.11,7.949 9.497,15.912 16.136,20.294c0.587,0.387 0.769,1.166 0.415,1.774l-114.304,196.059c68.89,-28.737 97.22,-78.178 97.22,-78.178c0.024,-0.043 0.051,-0.084 0.08,-0.124l46.573,-63.739c0.34,-0.466 0.943,-0.658 1.49,-0.475c0.547,0.183 0.913,0.699 0.905,1.276c-0.314,22.123 10.046,45.777 29.416,66.232c0.385,0.406 0.473,1.011 0.22,1.51c-0.253,0.5 -0.792,0.786 -1.348,0.716c0,0 -53.501,-6.688 -100.609,37.334c13.705,-6.112 45.212,-18.421 76.897,-18.524c42.025,-0.136 73.724,15.815 93.558,21.556c0.02,0.006 0.04,0.012 0.06,0.019c22.807,7.787 49.122,12.253 78.458,11.947c54.908,-0.573 90.538,-33.923 112.466,-67.09c6.541,-9.893 11.865,-19.774 16.117,-28.774c-8.344,15.469 -19.865,33.484 -34.656,49.23c-23.219,24.716 -54.469,43.823 -94.071,39.028c-98.852,-11.97 -123.593,-77.115 -123.587,-119.064c0.005,-37.982 16.374,-60.672 16.374,-60.672c0.38,-0.528 1.088,-0.702 1.67,-0.411c0.582,0.292 0.866,0.963 0.67,1.584c-14.797,46.903 -11.074,80.679 1.488,104.982c17.543,33.938 52.212,49.365 77.194,56.281c-27.092,-13.6 -41.732,-42.147 -41.288,-76.584c0.581,-45.133 29.552,-83.021 78.241,-86.155c33.803,-2.176 48.055,10.333 53.669,18.385c-2.132,-7.702 -9.76,-20.487 -36.185,-29.076c-0.645,-0.21 -1.027,-0.871 -0.887,-1.535c0.14,-0.663 0.758,-1.114 1.432,-1.044c20.812,2.14 31.325,10.123 36.51,18.811c5.688,9.531 4.961,20.024 4.13,25.074c2.844,-2.058 7.502,-6.587 10.051,-15.328c3.921,-13.449 1.387,-22.645 -3.11,-30.69c-4.538,-8.12 -17.719,-15.072 -22.636,-17.971c-2.509,-1.48 -4.012,-1.558 -5.758,-1.459c1.787,0.255 3.338,1.042 4.564,1.924c1.865,1.341 2.952,2.88 2.952,2.88c0.264,0.371 0.319,0.85 0.147,1.271c-0.172,0.421 -0.549,0.724 -0.997,0.803c0,0 -3.483,0.603 -6.428,-0.254c-2.271,-0.661 -4.217,-2.122 -4.556,-5.006c-0.078,-0.662 0.348,-1.279 0.995,-1.441c0.04,-0.01 0.08,-0.02 0.12,-0.029c-0.826,-0.003 -1.746,-0.051 -2.805,-0.186c-5.954,-0.761 -6.592,-2.139 -12.435,-4.428c-3.556,-1.393 -5.555,-0.685 -6.994,-0.269c-0.944,0.273 -1.738,0.406 -2.488,0.23c-0.836,-0.195 -1.351,-0.584 -1.695,-1.035c-0.334,-0.438 -0.508,-0.962 -0.568,-1.536c-0.051,-0.482 0.035,-1.019 -0.01,-1.48c-0.311,0.003 -1.055,0.033 -1.524,0.232c-0.248,0.105 -0.487,0.238 -0.697,0.398c-0.299,0.229 -0.223,0.611 -0.083,1.024c0.289,0.856 1.006,1.796 1.997,2.686c1.748,1.571 4.108,1.563 5.201,0.306c0.852,-0.98 2.399,-1.023 3.642,-0.2c1.337,0.886 2.094,2.582 1.172,4.082c-0.313,0.51 -0.854,1.033 -1.756,1.457c-1.006,0.473 -2.566,0.86 -4.893,0.988c-7.781,0.427 -11.431,-3.948 -12.822,-7.364c-0.653,-1.605 -0.794,-3.039 -0.677,-3.797c0.132,-0.864 0.978,-2.169 2.796,-3.127c3.241,-1.708 9.995,-2.664 20.132,2.704c5.55,2.939 8.854,4.19 10.827,4.634c0.644,0.145 1.22,0.162 1.532,0.158Zm2.35,5.837c0.666,5.653 9.439,4.11 9.439,4.11c0,0 -3.911,-5.492 -9.439,-4.11Z" style="fill:#243243;"/></g></g><g transform="matrix(1,0,-0.034921,1,-56.188489,0)"><g transform="matrix(116.771389,0,0,116.771389,599.000492,410.037832)"></g><text x="70.849px" y="410.038px" style="font-family:'Exotic350BT-Bold', 'Exotc350 Bd BT', fantasy;font-size:116.771px;fill:#243851;">ARTERIES</text></g></svg>